<svg id="Sea_Turtle" viewBox="0 0 64 64" xmlns="http://www.w3.org/2000/svg"><defs><style>.cls-1{fill:#544f56;}.cls-2{fill:#f1ccc6;}.cls-3{fill:#ebafa5;}.cls-4{fill:#e7a990;}.cls-5{fill:#655e66;}.cls-6{fill:#e29375;}</style></defs><path class="cls-1" d="M20.87,42.55a37.27,37.27,0,0,0,7.93,1.31c1.15,0,2.29-.06,3.41-.17l4.49-1.76s1.62-4.6,1.36-4.67-3.54-1.68-3.54-1.68L20.89,38.66S18.14,38.49,20.87,42.55Z" id="path302669-1"></path><path class="cls-2" d="M10.54,39.92c-2,2.29-2.2,6.35-2.16,8.34A1.21,1.21,0,0,0,9.6,49.45c2.46-.14,8.3-1.4,13-9.53l-2.74-2.8Z" id="path301900-5"></path><path class="cls-2" d="M46.26,39.9c-4.7,8.14-10.54,9.4-13,9.54A1.21,1.21,0,0,1,32,48.25c0-2,.18-6,2.16-8.34l4.68-3.19Z" id="path302254-4"></path><path class="cls-2" d="M44,25.9a6.38,6.38,0,1,1,4.66,10.74l-3.51,1-2.37-3.39Z" id="path102715-90-7"></path><path class="cls-3" d="M48.62,23.88a6.53,6.53,0,0,0-1.33.14A6.38,6.38,0,0,1,46,36.64L44.67,37l.45.64,3.5-1a6.38,6.38,0,1,0,0-12.76Z" id="path520390-6"></path><path class="cls-4" d="M46.45,35.19a18.64,18.64,0,1,0-37.28,0l16.21,2.23Z" id="path101602-4-5"></path><path class="cls-5" d="M10.67,35.2H9.36a2.36,2.36,0,0,0,0,4.72l36.9,0a2.36,2.36,0,0,0,0-4.72C37.81,35.17,19.33,35.2,10.67,35.2Z" id="path83934-1-6"></path><path class="cls-6" d="M46.45,35.19A18.64,18.64,0,0,0,27.81,16.54a17.92,17.92,0,0,0-1.95.11A18.64,18.64,0,0,1,42.55,35.19Z" id="path502410-9"></path><path class="cls-1" d="M46.26,39.9a2.36,2.36,0,0,0,0-4.72h-5a2.36,2.36,0,0,1,0,4.72Z" id="path523563-3"></path><path d="M48.62,22.88a7.35,7.35,0,0,0-4.43,1.5,19.61,19.61,0,0,0-36,10,3.34,3.34,0,0,0,.55,6.44,16.9,16.9,0,0,0-1.38,7.42,2.17,2.17,0,0,0,.72,1.59,2.09,2.09,0,0,0,1.44.59h.12c2.14-.12,7.09-1.09,11.59-6.77a34.59,34.59,0,0,0,7.55,1.18c.83,0,1.64-.06,2.46-.12A22.52,22.52,0,0,0,31,48.27a2.24,2.24,0,0,0,.72,1.59,2.12,2.12,0,0,0,1.45.58h.12c2.45-.15,8.6-1.39,13.53-9.6a3.36,3.36,0,0,0,2.77-3.3h0a7.36,7.36,0,0,0-1-14.66ZM28.81,34.19V26.72l6.5-2.5,4.32,5.67-2.35,4.29ZM10.74,30.8h3.47l1.85,3.39H10.67s0,0-.06,0h-.39A17.33,17.33,0,0,1,10.74,30.8Zm7.6,3.39L16,29.89l4.32-5.67,6.5,2.5v7.47ZM41.41,30.8h3.47a17.91,17.91,0,0,1,.52,3.38H39.56Zm2.83-2H41.31l-4.66-6.12V20A17.68,17.68,0,0,1,44.24,28.8Zm-9.59-9.87v3.4s-6.78,2.53-6.84,2.53S21,22.33,21,22.33v-3.4a17.52,17.52,0,0,1,13.68,0ZM19,20v2.73L14.31,28.8H11.38A17.64,17.64,0,0,1,19,20ZM9.55,48.46h0a.19.19,0,0,1-.08-.05.24.24,0,0,1-.08-.16c0-1.53.11-5.18,1.67-7.33H20.8C16.5,47.33,11.57,48.34,9.55,48.46Zm19.25-5.6a31.26,31.26,0,0,1-6.27-.92l.63-1h9.22a11.3,11.3,0,0,0-.7,1.81C30.73,42.8,29.77,42.86,28.8,42.86Zm4.4,5.58a.2.2,0,0,1-.09,0,.3.3,0,0,1-.08-.16c0-1.54.12-5.18,1.68-7.33h9.74C40.16,47.32,35.22,48.32,33.2,48.44ZM46.26,38.9l-36.9,0a1.36,1.36,0,0,1,0-2.72c25.67,0,30.75,0,36.9,0a1.36,1.36,0,0,1,0,2.72ZM49,35.6a3.39,3.39,0,0,0-1.58-1.21,19,19,0,0,0-2.19-8.27A5.36,5.36,0,1,1,49,35.6Z"></path></svg>